<svg xmlns="http://www.w3.org/2000/svg" viewBox="0 0 1440 320"><path fill="#0099ff" fill-opacity="1" d="M0,224L20,213.3C40,203,80,181,120,165.3C160,149,200,139,240,133.3C280,128,320,128,360,144C400,160,440,192,480,192C520,192,560,160,600,144C640,128,680,128,720,128C760,128,800,128,840,122.7C880,117,920,107,960,90.7C1000,75,1040,53,1080,58.7C1120,64,1160,96,1200,101.3C1240,107,1280,85,1320,101.3C1360,117,1400,171,1420,197.3L1440,224L1440,320L1420,320C1400,320,1360,320,1320,320C1280,320,1240,320,1200,320C1160,320,1120,320,1080,320C1040,320,1000,320,960,320C920,320,880,320,840,320C800,320,760,320,720,320C680,320,640,320,600,320C560,320,520,320,480,320C440,320,400,320,360,320C320,320,280,320,240,320C200,320,160,320,120,320C80,320,40,320,20,320L0,320Z"></path></svg>